# xmcd CD database file
#
# Track frame offsets:
#	150
#	28162
#	46537
#	71865
#	92079
#	108541
#	127887
#	145046
#	170168
#	194757
#
# Disc length: 2895 seconds
#
# Revision: 0
# Processed by: cddbd v1.5.1PL2 Copyright (c) Steve Scherf et al.
# Submitted via: CDex 1.51
#
DISCID=900b4d0a
DTITLE=うずまき - ヒコーキのうた
DYEAR=1900
DGENRE=Rock
TTITLE0=01-カミナリ
TTITLE1=02-海辺の家の一週間
TTITLE2=03-ヒコーキのうた
TTITLE3=04-心の行進
TTITLE4=05-おにぎりソング
TTITLE5=06-サンダル鳴らしの名人
TTITLE6=07-眺めのいい部屋
TTITLE7=08-弱気なアマノさん
TTITLE8=09-湯けむりの街
TTITLE9=10-おいのりのうた
EXTD=
EXTT0=
EXTT1=
EXTT2=
EXTT3=
EXTT4=
EXTT5=
EXTT6=
EXTT7=
EXTT8=
EXTT9=
PLAYORDER=
